<svg xmlns="http://www.w3.org/2000/svg" width="500" height="500" viewBox="0 0 500 500" version="1.1"><path d="M 118.997 223.503 C 116.912 226.016, 117.514 230.198, 120.285 232.444 C 121.679 233.575, 150.084 257.675, 183.405 286 L 243.990 337.500 243.995 397.750 L 244 458 210.655 458 C 179.621 458, 177.195 458.127, 175.655 459.829 C 173.625 462.072, 173.536 464.983, 175.419 467.559 C 176.802 469.449, 178.726 469.500, 249.384 469.500 C 315.655 469.500, 322.072 469.356, 323.589 467.839 C 325.789 465.639, 325.705 460.988, 323.434 459.328 C 322.011 458.288, 314.505 458, 288.809 458 L 256 458 256 397.611 L 256 337.221 318.750 283.861 C 363.820 245.534, 381.593 229.843, 381.830 228.168 C 382.012 226.885, 381.380 224.972, 380.425 223.918 C 378.732 222.046, 375.568 222, 249.467 222 C 135.705 222, 120.096 222.180, 118.997 223.503 M 140.448 233.915 C 140.759 234.419, 164.748 254.965, 193.757 279.574 C 222.765 304.183, 247.262 324.967, 248.193 325.762 C 249.725 327.069, 254.972 322.891, 303.193 281.972 C 332.512 257.093, 357.388 235.896, 358.472 234.869 C 360.399 233.043, 357.896 233, 250.163 233 C 183.711 233, 140.107 233.364, 140.448 233.915" stroke="none" fill="#6f6cab" fill-rule="evenodd"/><path d="M 244.020 20.250 C 237.106 23.782, 233.883 28.584, 233.266 36.273 C 232.966 40.007, 233.245 44.214, 233.930 46.289 C 236.334 53.571, 246.995 60.038, 254.044 58.490 C 256.917 57.859, 256.935 57.887, 267.920 79.840 C 277.819 99.622, 278.758 101.956, 277.301 103.161 C 274.665 105.342, 272.046 112.177, 272.022 116.934 C 271.993 122.681, 275.247 129.325, 279.780 132.777 C 286.003 137.516, 296.994 135.980, 304.056 129.385 L 306.612 126.998 318.056 131.933 L 329.500 136.868 330.124 142.684 C 330.883 149.761, 331.979 152.633, 335.527 156.850 C 340.910 163.248, 349.670 165.998, 358.167 163.960 C 362.175 162.998, 364.488 161.607, 368.124 157.972 C 375.917 150.178, 377.158 139.642, 371.382 130.300 C 364.148 118.599, 346.274 116.533, 337 126.326 C 335.625 127.778, 333.825 128.938, 333 128.905 C 332.175 128.873, 326.775 126.728, 321 124.141 L 310.500 119.436 309.898 113.873 C 308.733 103.097, 302.281 96.867, 291.581 96.186 L 285.374 95.791 274.669 74.353 L 263.963 52.915 266.344 49.707 C 272.501 41.411, 272.293 31.821, 265.797 24.422 C 259.774 17.562, 252.143 16.100, 244.020 20.250 M 193.358 35.954 C 184.544 38.056, 178.485 45.742, 178.745 54.495 C 178.826 57.248, 179.030 60.625, 179.196 62 C 179.446 64.055, 177.389 66.515, 167.647 75.817 C 158.994 84.080, 155.349 86.952, 154.147 86.457 C 151.249 85.264, 144.237 84.733, 140.541 85.426 C 136.190 86.243, 130.190 91.300, 128.351 95.702 C 125.288 103.032, 127.897 114.414, 133.682 118.965 L 136.190 120.937 133.095 135.528 C 131.393 143.553, 130 150.268, 130 150.451 C 130 150.634, 128.883 151.063, 127.518 151.406 C 126.153 151.749, 123.453 153.419, 121.518 155.118 C 118.273 157.968, 118 158.645, 118.004 163.854 C 118.008 170.462, 120.364 175.102, 124.906 177.451 C 128.752 179.440, 135.263 179.433, 139.126 177.435 C 142.115 175.889, 142.267 175.940, 151.541 181.551 L 160.930 187.231 160.329 191.616 C 159.518 197.536, 162.068 203.925, 167.033 208.411 C 171.607 212.543, 174.428 213.437, 180.672 212.733 C 193.301 211.310, 201.429 197.143, 196.452 185.232 C 191.849 174.213, 181.842 171.034, 170.518 176.990 L 164.833 179.981 155.524 174.280 L 146.214 168.580 145.758 163.832 C 145.456 160.687, 144.360 157.849, 142.511 155.426 L 139.721 151.768 141.845 142.134 C 143.013 136.835, 144.452 130.188, 145.043 127.363 C 145.965 122.956, 146.499 122.150, 148.809 121.686 C 152.655 120.913, 158.083 117.001, 160.702 113.114 C 163.729 108.622, 164.549 103.503, 163.107 98.109 L 161.911 93.640 168.706 86.744 C 172.443 82.952, 178.094 77.583, 181.264 74.814 C 186.273 70.437, 187.240 69.954, 188.647 71.122 C 191.406 73.412, 200.871 72.798, 205.799 70.009 C 216.572 63.914, 218.602 48.797, 209.791 40.297 C 204.641 35.330, 200.531 34.243, 193.358 35.954 M 294.299 165.900 C 290.196 168.477, 287.999 172.771, 288.004 178.200 C 288.013 189.415, 300.415 195.731, 309.703 189.252 L 312.500 187.301 323.750 192.609 C 334.935 197.887, 335 197.938, 335 201.424 C 335 203.917, 335.893 205.948, 338.091 208.451 C 345.692 217.108, 358.767 214.184, 362.093 203.085 C 363.183 199.446, 363.098 198.335, 361.412 194.212 C 357.966 185.789, 348.067 182.828, 340.799 188.048 L 338.097 189.988 327.161 184.897 C 316.347 179.864, 316.218 179.763, 315.595 175.870 C 315.204 173.421, 313.712 170.565, 311.648 168.313 C 308.768 165.170, 307.615 164.639, 302.915 164.290 C 298.727 163.980, 296.775 164.344, 294.299 165.900" stroke="none" fill="#32325b" fill-rule="evenodd"/><path d="M 299.500 32.988 C 296.113 35.217, 293 40.354, 293 43.714 C 293 48.090, 296.136 53.921, 299.661 56.100 C 302.467 57.834, 304.195 58.148, 308.810 57.764 L 314.500 57.290 324.176 66.215 C 333.344 74.672, 333.823 75.314, 333.313 78.462 C 331.695 88.430, 340.930 96.515, 350.817 93.785 C 361.235 90.908, 364.011 78.174, 355.911 70.415 C 353.164 67.784, 352.197 67.496, 345.990 67.459 L 339.113 67.419 329.651 58.717 C 320.390 50.200, 320.199 49.933, 320.697 46.221 C 321.387 41.079, 318.909 35.524, 314.810 33.026 C 310.473 30.381, 303.487 30.364, 299.500 32.988 M 168 74.500 C 165.571 76.975, 163.809 79, 164.084 79 C 164.359 79, 166.571 76.975, 169 74.500 C 171.429 72.025, 173.191 70, 172.916 70 C 172.641 70, 170.429 72.025, 168 74.500 M 229.071 78.752 C 224.520 81.072, 221.980 84.731, 221.276 89.979 C 220.201 97.997, 226.086 104.333, 234.608 104.333 C 247.623 104.333, 252.861 87.329, 242.385 79.088 C 239.115 76.516, 233.723 76.379, 229.071 78.752 M 171 84.500 C 168.571 86.975, 166.809 89, 167.084 89 C 167.359 89, 169.571 86.975, 172 84.500 C 174.429 82.025, 176.191 80, 175.916 80 C 175.641 80, 173.429 82.025, 171 84.500 M 187.500 113.423 C 178.126 117.624, 172.869 131.098, 177.295 139.577 C 180.587 145.883, 186.936 150, 193.369 150 C 197.940 150, 206.653 145.396, 208.727 141.885 C 210.108 139.548, 210.982 139.047, 212.982 139.446 C 214.367 139.723, 219.775 140.666, 225 141.542 C 230.225 142.418, 234.677 143.667, 234.894 144.317 C 235.110 144.968, 237.023 147.169, 239.144 149.210 L 243 152.920 242.994 162.210 L 242.987 171.500 239.946 173.231 C 235.921 175.522, 232.571 182.971, 233.366 187.866 C 234.494 194.822, 241.466 201, 248.188 201 C 256.813 201, 264 193.955, 264 185.500 C 264 180.512, 260.539 174.250, 256.446 171.836 L 253 169.802 253 160.834 C 253 151.880, 253.006 151.860, 256.500 148.565 C 259.532 145.706, 260 144.637, 260 140.582 C 260 134.794, 257.879 130.506, 254.033 128.517 C 249.665 126.258, 244.818 126.634, 240.498 129.566 L 236.717 132.132 226.609 130.492 C 212.969 128.280, 213.656 128.612, 211.324 123.094 C 208.389 116.147, 202.471 111.986, 195.600 112.039 C 192.795 112.061, 189.150 112.683, 187.500 113.423 M 271.232 117 C 271.232 118.925, 271.438 119.713, 271.689 118.750 C 271.941 117.787, 271.941 116.213, 271.689 115.250 C 271.438 114.287, 271.232 115.075, 271.232 117 M 350.762 119.707 C 352.006 119.946, 353.806 119.937, 354.762 119.687 C 355.718 119.437, 354.700 119.241, 352.500 119.252 C 350.300 119.263, 349.518 119.468, 350.762 119.707 M 180.250 173.689 C 181.213 173.941, 182.787 173.941, 183.750 173.689 C 184.713 173.438, 183.925 173.232, 182 173.232 C 180.075 173.232, 179.287 173.438, 180.250 173.689 M 198.272 193 C 198.272 195.475, 198.467 196.488, 198.706 195.250 C 198.944 194.012, 198.944 191.988, 198.706 190.750 C 198.467 189.512, 198.272 190.525, 198.272 193 M 185.328 221.750 C 220.983 221.896, 279.033 221.895, 314.328 221.750 C 349.622 221.604, 320.450 221.485, 249.500 221.485 C 178.550 221.485, 149.672 221.604, 185.328 221.750 M 248.869 233.750 C 352.751 233.996, 358.170 234.096, 356.886 235.754 C 355.793 237.166, 355.961 237.136, 357.767 235.595 C 358.995 234.547, 360 233.535, 360 233.345 C 360 233.155, 310.388 233.110, 249.750 233.246 L 139.500 233.491 248.869 233.750 M 195.314 457.749 C 204.561 457.914, 219.411 457.913, 228.314 457.748 C 237.216 457.582, 229.650 457.447, 211.500 457.448 C 193.350 457.448, 186.066 457.583, 195.314 457.749 M 271.750 457.748 C 280.688 457.914, 295.313 457.914, 304.250 457.748 C 313.188 457.582, 305.875 457.447, 288 457.447 C 270.125 457.447, 262.813 457.582, 271.750 457.748" stroke="none" fill="#8a82b8" fill-rule="evenodd"/><path d="M 0 250.002 L 0 500.004 250.250 499.752 L 500.500 499.500 500.752 249.750 L 501.004 0 250.502 0 L 0 0 0 250.002 M 0.492 250.500 C 0.492 388, 0.608 444.101, 0.750 375.170 C 0.892 306.238, 0.892 193.738, 0.750 125.170 C 0.608 56.601, 0.492 113, 0.492 250.500 M 245.615 18.472 C 240.526 20.286, 234.228 26.520, 232.993 30.965 C 228.833 45.941, 237.200 59, 250.957 59 L 256.522 59 267.215 80.415 C 276.826 99.660, 277.746 101.966, 276.296 103.165 C 273.644 105.360, 271.045 112.195, 271.022 117.038 C 270.994 122.870, 274.338 129.460, 279.347 133.442 C 282.671 136.084, 283.924 136.474, 288.570 136.309 C 294.427 136.101, 301.617 133.383, 304.842 130.158 L 306.885 128.115 318.192 132.998 C 328.831 137.593, 329.480 138.037, 329.168 140.517 C 328.152 148.598, 334.205 159.023, 342.317 163.162 C 347.631 165.873, 357.082 166.064, 362 163.561 C 379.845 154.478, 380.533 130.329, 363.196 121.563 C 355.135 117.488, 345.220 118.659, 337.428 124.607 L 332.776 128.158 322.021 123.509 L 311.265 118.860 310.685 113.235 C 309.605 102.768, 301.154 95, 290.847 95 L 286.009 95 275.482 73.963 L 264.954 52.927 267.385 49.713 C 274.671 40.081, 271.902 25.543, 261.636 19.527 C 256.763 16.671, 251.620 16.332, 245.615 18.472 M 301.500 31.412 C 299.850 32.145, 297.375 33.964, 296 35.453 C 293.868 37.763, 293.500 39.117, 293.500 44.657 C 293.500 50.861, 293.665 51.305, 297.169 54.516 C 301.267 58.272, 306.967 59.828, 311.021 58.298 C 313.467 57.375, 314.366 57.956, 323.330 66.248 L 333 75.193 333.004 80.347 C 333.008 86.773, 335.459 91.041, 340.524 93.444 C 345.071 95.602, 351.605 95.134, 355.297 92.386 C 363.252 86.466, 362.807 73.851, 354.450 68.375 C 352.005 66.773, 344.158 65.987, 341.375 67.064 C 340.757 67.304, 335.938 63.675, 330.668 59 L 321.085 50.500 321.042 45.118 C 320.988 38.189, 318.335 33.751, 312.961 31.601 C 308.160 29.680, 305.495 29.636, 301.500 31.412 M 193.718 35.047 C 181.870 37.976, 175.903 47.055, 178.176 58.695 L 179.115 63.500 167.315 74.741 C 157.690 83.909, 155.146 85.845, 153.508 85.241 C 152.403 84.833, 148.535 84.500, 144.912 84.500 C 139.291 84.500, 137.718 84.920, 134.197 87.362 C 129.128 90.877, 126 96.977, 126 103.348 C 126 109.126, 127.744 113.500, 131.966 118.308 L 135.182 121.971 133.005 132.236 C 129.280 149.795, 129.254 149.866, 125.711 151.363 C 123.945 152.109, 121.263 153.969, 119.750 155.496 C 117.405 157.864, 117.001 159.099, 117.004 163.886 C 117.012 176.287, 127.298 183.245, 138.625 178.512 C 142.167 177.032, 142.232 177.052, 150.913 182.223 L 159.640 187.423 159.570 193.461 C 159.364 211.246, 178.464 220.312, 191.684 208.704 C 202.798 198.946, 200.670 181.130, 187.574 174.294 C 183.649 172.245, 174.978 173.282, 169.246 176.486 L 164.918 178.905 156.211 173.629 C 147.591 168.407, 147.497 168.307, 146.827 163.619 C 146.428 160.835, 145.029 157.415, 143.429 155.318 L 140.709 151.752 142.911 141.126 C 146.694 122.877, 146.421 123.493, 151.582 121.522 C 161.402 117.772, 166.424 108.680, 164.140 98.786 C 162.755 92.787, 161.835 94.165, 176.079 80.927 C 185.808 71.885, 187.109 70.988, 189.016 72.008 C 190.182 72.632, 193.535 73.143, 196.468 73.143 C 208.165 73.143, 216 65.202, 216 53.348 C 216 40.879, 205.387 32.163, 193.718 35.047 M 230.741 77.391 C 223.739 79.960, 221 84.017, 221 91.815 C 221 108.506, 245.679 109.695, 248.476 93.139 C 249.739 85.669, 244.410 77.711, 237.334 76.498 C 235.775 76.231, 232.808 76.633, 230.741 77.391 M 188.637 112.412 C 175.214 117.382, 170.776 134.634, 180.298 144.831 C 187.496 152.541, 201.092 151.621, 208.406 142.929 L 211.064 139.771 222.607 141.581 C 233.311 143.260, 234.253 143.588, 235.548 146.092 C 236.316 147.577, 238.065 149.627, 239.436 150.646 C 241.668 152.307, 241.992 153.438, 242.547 161.500 L 243.167 170.500 239.742 172.655 C 230.949 178.189, 230.772 192.873, 239.430 198.546 C 251.826 206.668, 267.907 195.385, 264.059 181.265 C 262.947 177.183, 259.738 172.970, 256.394 171.199 C 254.571 170.234, 254.212 168.899, 253.733 161.292 L 253.179 152.500 256.509 149.439 C 262.028 144.365, 262.400 137.006, 257.436 131.106 C 252.994 125.827, 243.424 125.131, 238.804 129.752 C 236.945 131.610, 236.687 131.609, 224.955 129.671 C 216.371 128.253, 213 127.305, 213 126.308 C 213 123.220, 208.724 116.846, 204.999 114.380 C 200.229 111.224, 193.902 110.462, 188.637 112.412 M 294.241 164.995 C 284.597 170.874, 284.577 185.587, 294.206 190.627 C 298.801 193.033, 305.996 192.898, 309.506 190.342 L 312.310 188.299 323.155 193.338 C 333.483 198.138, 334 198.524, 334.007 201.439 C 334.015 205.133, 336.758 209.542, 340.641 212.102 C 344.510 214.653, 352.467 214.622, 356.701 212.040 C 365.356 206.764, 365.356 192.236, 356.701 186.960 C 352.473 184.382, 344.783 184.358, 340.618 186.911 L 337.500 188.823 326.750 183.764 C 316.615 178.994, 316 178.535, 316 175.721 C 316 166.018, 303.041 159.629, 294.241 164.995 M 118.585 222.906 C 117.504 224.101, 116.979 226.013, 117.180 228.023 C 117.468 230.915, 123.713 236.519, 180 284.398 L 242.500 337.563 242.758 397.282 L 243.016 457 210.047 457 C 177.419 457, 177.057 457.023, 175.039 459.189 C 172.602 461.804, 172.437 464.751, 174.557 467.777 L 176.113 470 249.485 470 C 330.807 470, 326 470.409, 326 463.485 C 326 457.083, 325.526 457, 288.777 457 L 256 457 256 397.692 L 256 338.384 317.732 285.942 C 351.685 257.099, 380.260 232.713, 381.232 231.750 C 383.578 229.427, 383.473 225.473, 381 223 C 379.021 221.021, 377.667 221, 249.655 221 C 123.695 221, 120.265 221.050, 118.585 222.906 M 143.036 235.363 C 143.841 236.113, 167.225 255.978, 195 279.509 C 222.775 303.040, 246.457 323.152, 247.626 324.204 L 249.753 326.116 303.932 280.058 L 358.111 234 249.841 234 C 158.387 234, 141.799 234.212, 143.036 235.363" stroke="none" fill="#ffffff" fill-rule="evenodd"/><path d="" stroke="none" fill="#59588b" fill-rule="evenodd"/><path d="M 305.250 30.689 C 306.212 30.941, 307.788 30.941, 308.750 30.689 C 309.712 30.438, 308.925 30.232, 307 30.232 C 305.075 30.232, 304.288 30.438, 305.250 30.689 M 326.500 56 C 328.648 58.200, 330.631 60, 330.906 60 C 331.181 60, 329.648 58.200, 327.500 56 C 325.352 53.800, 323.369 52, 323.094 52 C 322.819 52, 324.352 53.800, 326.500 56 M 317.500 61 C 319.648 63.200, 321.631 65, 321.906 65 C 322.181 65, 320.648 63.200, 318.500 61 C 316.352 58.800, 314.369 57, 314.094 57 C 313.819 57, 315.352 58.800, 317.500 61 M 305.762 58.707 C 307.006 58.946, 308.806 58.937, 309.762 58.687 C 310.718 58.437, 309.700 58.241, 307.500 58.252 C 305.300 58.263, 304.518 58.468, 305.762 58.707 M 334 62.313 C 334 62.485, 335.462 63.948, 337.250 65.563 L 340.500 68.500 337.563 65.250 C 334.825 62.221, 334 61.540, 334 62.313 M 175.946 66.750 L 172.500 70.500 176.250 67.054 C 178.313 65.158, 180 63.471, 180 63.304 C 180 62.540, 179.154 63.260, 175.946 66.750 M 329.050 71.553 C 331.497 74.332, 333.703 76.453, 333.952 76.268 C 334.200 76.082, 332.198 73.808, 329.502 71.215 L 324.600 66.500 329.050 71.553 M 180 76.500 C 177.571 78.975, 175.809 81, 176.084 81 C 176.359 81, 178.571 78.975, 181 76.500 C 183.429 74.025, 185.191 72, 184.916 72 C 184.641 72, 182.429 74.025, 180 76.500 M 159 82.500 C 156.571 84.975, 154.809 87, 155.084 87 C 155.359 87, 157.571 84.975, 160 82.500 C 162.429 80.025, 164.191 78, 163.916 78 C 163.641 78, 161.429 80.025, 159 82.500 M 247 95.757 C 247 96.356, 245.778 98.344, 244.285 100.173 C 242.053 102.909, 241.980 103.147, 243.878 101.511 C 246.573 99.188, 248.412 96.078, 247.581 95.248 C 247.261 94.928, 247 95.157, 247 95.757 M 164.252 103.500 C 164.263 105.700, 164.468 106.482, 164.707 105.238 C 164.946 103.994, 164.937 102.194, 164.687 101.238 C 164.437 100.282, 164.241 101.300, 164.252 103.500 M 193.762 111.707 C 195.006 111.946, 196.806 111.937, 197.762 111.687 C 198.718 111.437, 197.700 111.241, 195.500 111.252 C 193.300 111.263, 192.518 111.468, 193.762 111.707 M 177.989 121.250 C 176.899 123.037, 176.006 124.912, 176.004 125.417 C 175.999 126.556, 176.141 126.370, 178.786 121.750 C 181.415 117.157, 180.742 116.735, 177.989 121.250 M 366 123.313 C 366 123.485, 367.462 124.948, 369.250 126.563 L 372.500 129.500 369.563 126.250 C 366.825 123.221, 366 122.540, 366 123.313 M 239.757 129.250 C 238.462 130.488, 238.099 131, 238.951 130.390 C 239.803 129.779, 241.400 128.781, 242.500 128.170 C 243.600 127.560, 243.963 127.047, 243.306 127.030 C 242.649 127.014, 241.052 128.012, 239.757 129.250 M 260.252 139.500 C 260.263 141.700, 260.468 142.482, 260.707 141.238 C 260.946 139.994, 260.937 138.194, 260.687 137.238 C 260.437 136.282, 260.241 137.300, 260.252 139.500 M 329.252 142.500 C 329.263 144.700, 329.468 145.482, 329.707 144.238 C 329.946 142.994, 329.937 141.194, 329.687 140.238 C 329.437 139.282, 329.241 140.300, 329.252 142.500 M 178 142.313 C 178 142.485, 179.463 143.948, 181.250 145.563 L 184.500 148.500 181.563 145.250 C 178.825 142.221, 178 141.540, 178 142.313 M 241.975 155.796 L 242.458 160.500 242.797 156.618 C 242.984 154.483, 242.767 152.367, 242.315 151.915 C 241.863 151.463, 241.710 153.210, 241.975 155.796 M 253.136 163.191 C 253.061 166.871, 253.338 170.091, 253.750 170.347 C 254.162 170.603, 254.370 168.492, 254.211 165.656 C 253.734 157.132, 253.281 156.093, 253.136 163.191 M 159.232 194 C 159.232 195.925, 159.438 196.713, 159.689 195.750 C 159.941 194.787, 159.941 193.213, 159.689 192.250 C 159.438 191.287, 159.232 192.075, 159.232 194 M 240.242 335.546 L 242.984 338.593 243.250 398.046 L 243.516 457.500 243.758 397.937 L 244 338.374 240.750 335.437 L 237.500 332.500 240.242 335.546" stroke="none" fill="#fbfbfb" fill-rule="evenodd"/></svg>
